<?xml version="1.0" standalone="no"?>
<!DOCTYPE svg PUBLIC "-//W3C//DTD SVG 20010904//EN"
 "http://www.w3.org/TR/2001/REC-SVG-20010904/DTD/svg10.dtd">
<svg version="1.0" xmlns="http://www.w3.org/2000/svg"
 width="178.000000pt" height="105.000000pt" viewBox="0 0 178.000000 105.000000"
 preserveAspectRatio="xMidYMid meet">

<g transform="translate(0.000000,105.000000) scale(0.100000,-0.100000)"
fill="#000000" stroke="none">
<path d="M540 815 c0 -178 -1 -185 -20 -185 -11 0 -20 -5 -20 -11 0 -6 14 -9
33 -7 l32 3 0 168 c0 157 4 190 19 150 5 -12 10 -13 17 -6 8 8 4 20 -12 42
-45 61 -49 47 -49 -154z"/>
<path d="M820 830 c0 -151 -7 -198 -23 -157 -3 8 -44 69 -92 136 -57 79 -91
119 -98 112 -12 -12 50 -104 65 -95 7 4 8 2 4 -4 -8 -13 133 -212 151 -212 10
0 13 41 15 183 l3 182 270 0 270 0 5 -140 c4 -112 9 -146 23 -168 39 -59 110
-80 181 -53 72 28 80 49 84 215 4 131 6 144 23 148 32 9 21 24 -13 21 l-33 -3
-7 -155 c-7 -170 -9 -190 -19 -185 -3 3 -15 -2 -25 -10 -23 -17 -93 -19 -127
-4 -45 20 -52 45 -57 204 l-5 150 -297 3 -298 2 0 -170z"/>
<path d="M1056 908 c-49 -14 -112 -76 -125 -125 -27 -96 8 -194 86 -240 l45
-26 -32 -25 c-88 -69 -93 -224 -11 -302 80 -76 190 -77 272 -3 65 59 84 164
43 244 -16 32 -80 89 -99 89 -17 0 -20 16 -5 25 6 4 8 10 5 15 -3 4 3 7 12 6
10 -1 27 19 46 54 25 48 28 62 24 114 -12 130 -131 210 -261 174z m163 -48
c61 -43 88 -142 57 -213 -7 -18 -30 -48 -50 -67 -35 -33 -41 -35 -104 -35 -52
0 -73 5 -93 20 -116 87 -99 265 31 318 34 14 126 1 159 -23z m10 -364 c42 -22
89 -81 97 -121 20 -110 -62 -215 -169 -215 -59 0 -98 19 -134 67 -25 32 -28
45 -28 108 0 62 3 76 27 107 15 20 24 39 20 43 -4 5 -1 5 5 1 7 -4 23 0 35 8
28 20 110 21 147 2z"/>
<path d="M104 526 c-62 -28 -82 -91 -43 -139 11 -15 48 -40 83 -57 35 -16 69
-37 76 -45 14 -17 32 -97 20 -90 -4 3 -15 -4 -25 -15 -24 -27 -89 -26 -134 1
-22 13 -37 17 -44 10 -12 -12 44 -48 90 -57 38 -7 94 10 118 36 9 10 19 36 22
57 7 51 -21 86 -100 124 -33 16 -68 36 -77 44 -9 8 -19 13 -22 10 -2 -3 -3 10
0 28 7 50 38 77 89 77 42 0 83 -25 83 -50 0 -5 5 -10 10 -10 20 0 10 50 -12
64 -35 23 -98 28 -134 12z"/>
<path d="M570 522 c0 -6 5 -12 11 -14 7 -2 42 -85 79 -183 52 -139 72 -181 86
-183 16 -2 29 25 84 173 36 97 70 181 77 187 20 16 15 30 -8 26 -18 -2 -32
-30 -81 -168 -33 -91 -61 -171 -64 -178 -5 -18 -24 -5 -24 16 0 9 -26 87 -58
172 -49 132 -61 155 -80 158 -12 2 -22 -1 -22 -6z"/>
<path d="M1380 520 c0 -5 4 -10 9 -10 6 0 27 -27 47 -60 24 -39 41 -57 47 -51
15 15 -60 131 -84 131 -10 0 -19 -4 -19 -10z"/>
<path d="M1601 444 c-28 -47 -51 -90 -51 -95 0 -20 -20 -7 -36 22 -11 22 -19
28 -26 21 -7 -7 -4 -21 11 -45 17 -28 21 -50 21 -121 0 -70 3 -86 15 -86 12 0
15 16 15 85 l0 84 55 91 c31 50 53 96 49 101 -3 5 -2 9 3 8 4 -1 16 -1 26 0
24 1 12 21 -13 21 -13 0 -34 -26 -69 -86z"/>
<path d="M376 260 c-37 -99 -64 -185 -61 -189 3 -5 -4 -7 -15 -4 -14 4 -20 0
-20 -11 0 -23 37 -20 50 5 7 11 9 27 6 35 -3 8 -2 13 3 9 5 -3 15 11 21 30
l12 35 87 0 88 0 12 -42 c7 -24 19 -53 27 -65 l14 -23 475 0 c373 0 475 3 475
13 0 9 -95 11 -447 9 -247 -1 -458 0 -470 3 -22 5 -23 8 -115 255 -27 72 -49
116 -59 118 -12 2 -31 -40 -83 -178z m94 125 c0 -8 14 -48 30 -90 43 -107 44
-105 -46 -105 -57 0 -75 3 -72 13 3 6 20 54 38 105 30 84 50 115 50 77z"/>
</g>
</svg>
